<?xml version="1.0" encoding="UTF-8"?>
<svg width="800" height="600" viewBox="0 0 800 600" xmlns="http://www.w3.org/2000/svg">
    <!-- Background -->
    <rect width="800" height="600" fill="#F0FAFA"/>
    
    <!-- Decorative circles -->
    <g fill="#2B758A" opacity="0.1">
        <circle cx="200" cy="200" r="150"/>
        <circle cx="600" cy="400" r="100"/>
        <circle cx="400" cy="300" r="80"/>
    </g>
    
    <!-- Fashion items -->
    <g fill="#2B758A" opacity="0.8">
        <!-- Dress -->
        <path d="M300 150c0-50 50-100 100-100s100 50 100 100v300h-200z"/>
        <!-- Shirt -->
        <path d="M250 200c0-30 30-60 60-60s60 30 60 60v150h-120z"/>
        <!-- Pants -->
        <path d="M350 350c0-20 20-40 40-40s40 20 40 40v100h-80z"/>
    </g>
    
    <!-- Recycling symbol -->
    <g fill="#1379E7" opacity="0.6">
        <path d="M400 150c-50 0-100 50-100 100s50 100 100 100 100-50 100-100-50-100-100-100zm0 160c-33.3 0-60-26.7-60-60s26.7-60 60-60 60 26.7 60 60-26.7 60-60 60z"/>
        <path d="M400 200c-27.6 0-50 22.4-50 50s22.4 50 50 50 50-22.4 50-50-22.4-50-50-50zm0 80c-16.6 0-30-13.4-30-30s13.4-30 30-30 30 13.4 30 30-13.4 30-30 30z"/>
    </g>
    
    <!-- Text -->
    <text x="400" y="550" font-family="Arial" font-size="24" fill="#2B758A" text-anchor="middle" opacity="0.8">
        Sustainable Fashion for a Better Tomorrow
    </text>
</svg> 