<?xml version="1.0" encoding="UTF-8"?>
<svg width="400" height="300" viewBox="0 0 400 300" xmlns="http://www.w3.org/2000/svg">
    <rect width="400" height="300" fill="#F5F5F5"/>
    <g fill="#2B758A" opacity="0.1">
        <path d="M200 100c-55.2 0-100 44.8-100 100s44.8 100 100 100 100-44.8 100-100-44.8-100-100-100zm0 180c-44.2 0-80-35.8-80-80s35.8-80 80-80 80 35.8 80 80-35.8 80-80 80z"/>
        <path d="M200 140c-33.1 0-60 26.9-60 60s26.9 60 60 60 60-26.9 60-60-26.9-60-60-60zm0 100c-22.1 0-40-17.9-40-40s17.9-40 40-40 40 17.9 40 40-17.9 40-40 40z"/>
    </g>
    <text x="200" y="160" font-family="Arial" font-size="24" fill="#2B758A" text-anchor="middle" opacity="0.3">No Image Available</text>
</svg> 